<svg width="19" height="20" viewBox="0 0 19 20" fill="none" xmlns="http://www.w3.org/2000/svg">
<path fill-rule="evenodd" clip-rule="evenodd" d="M4.96621 0.0153214C4.47518 0.136217 4.02722 0.478002 3.83907 0.875349C3.69534 1.17888 3.68899 1.19563 3.64998 1.37382C3.53187 1.9133 3.54051 2.95061 3.66962 3.73325C3.69976 3.91602 3.73186 4.1179 3.7409 4.18187C3.74997 4.24584 3.76981 4.32809 3.78496 4.36464C3.80015 4.4012 3.83036 4.52831 3.85213 4.64711C3.87389 4.76591 3.90543 4.91921 3.92218 4.98773C4.00044 5.30775 4.01572 5.37444 4.05357 5.56097C4.07581 5.67064 4.10545 5.79027 4.11937 5.82682C4.13333 5.86338 4.17048 6.01292 4.20195 6.15914C4.23345 6.30535 4.27247 6.45094 4.28869 6.48268C4.30494 6.51441 4.31819 6.57709 4.31819 6.62195C4.31819 6.66681 4.33175 6.71191 4.3483 6.72214C4.36489 6.73238 4.38871 6.81549 4.40127 6.90684C4.41383 6.9982 4.43766 7.08131 4.45424 7.09154C4.47079 7.10178 4.48435 7.15162 4.48435 7.20234C4.48435 7.25305 4.49558 7.30572 4.50928 7.31938C4.53174 7.34174 4.59159 7.59104 4.63758 7.85394C4.64719 7.90877 4.66716 7.98354 4.68201 8.02009C4.69683 8.05665 4.73465 8.2361 4.76602 8.41887C4.79742 8.60164 4.8366 8.78554 4.85312 8.82752C4.91201 8.97732 4.87921 8.95679 4.57574 8.65372C4.40666 8.48487 4.1861 8.28458 4.08558 8.20861C3.98505 8.13268 3.88635 8.05695 3.86628 8.04036C3.79028 7.97762 3.29979 7.68186 3.18833 7.63155C2.7407 7.42957 2.28088 7.34895 1.90015 7.40574C1.75875 7.42681 1.61316 7.45619 1.57661 7.47101C1.54005 7.48583 1.43537 7.52461 1.34399 7.55718C1.10379 7.64275 0.838971 7.81944 0.629513 8.03388C0.366886 8.30273 0.322987 8.36786 0.133768 8.76923C0.0405538 8.96695 -0.0433555 9.92179 0.0249018 10.008C0.0419495 10.0296 0.0658428 10.1023 0.077939 10.1696C0.10808 10.3369 0.346249 10.7925 0.56119 11.094C0.726349 11.3257 1.05358 11.7539 1.09442 11.7919C1.10426 11.801 1.23173 11.958 1.37768 12.1407C1.52364 12.3235 1.65802 12.4891 1.6763 12.5087C1.69458 12.5284 1.7431 12.5882 1.7841 12.6417C1.82511 12.6952 1.90527 12.7988 1.96222 12.8719C2.11532 13.0684 2.5237 13.6867 2.5237 13.722C2.5237 13.7388 2.53527 13.7525 2.54939 13.7525C2.56351 13.7525 2.60422 13.8086 2.63988 13.8771C2.67554 13.9457 2.77616 14.1175 2.86346 14.2589C2.95076 14.4004 3.02217 14.5312 3.02217 14.5497C3.02217 14.5682 3.03713 14.5833 3.0554 14.5833C3.07368 14.5833 3.08863 14.598 3.08863 14.6159C3.08863 14.6339 3.14845 14.7463 3.22156 14.8658C3.29467 14.9852 3.35449 15.0976 3.35449 15.1156C3.35449 15.1335 3.36944 15.1482 3.38772 15.1482C3.40599 15.1482 3.42095 15.164 3.42095 15.1832C3.42095 15.2169 3.72518 15.6443 3.82222 15.7468C3.84827 15.7744 4.01057 15.9537 4.18294 16.1455C4.59219 16.6008 5.23408 17.2352 6.01602 17.9572C6.15476 18.0853 6.28935 18.2272 6.3151 18.2726C6.35082 18.3355 6.36222 18.5086 6.36312 19.0031C6.36418 19.5681 6.37193 19.6625 6.4236 19.7402C6.58793 19.9872 6.70092 20 8.71022 20C10.759 20 10.9597 19.9791 11.3181 19.728C11.5112 19.5928 11.725 19.3843 11.9216 19.1395C11.9892 19.0554 12.0617 18.9682 12.0828 18.9458C12.1038 18.9234 12.1554 18.8487 12.1973 18.7796C12.2393 18.7106 12.283 18.6467 12.2945 18.6375C12.3059 18.6284 12.3535 18.5561 12.4002 18.4769L12.485 18.3328L12.5959 18.5267C12.723 18.749 13.0762 19.2252 13.2534 19.4133C13.4199 19.59 13.7406 19.8107 13.9356 19.8828C14.0756 19.9345 14.1987 19.9425 14.8032 19.9393C15.1958 19.9372 15.5475 19.9204 15.5977 19.9013C15.6471 19.8825 15.7278 19.867 15.7769 19.8669C15.9027 19.8668 16.069 19.7562 16.1348 19.629C16.1794 19.5428 16.1868 19.4668 16.1713 19.2537C16.1607 19.1067 16.1356 18.9403 16.1157 18.8838C16.0671 18.7465 16.0888 17.5628 16.1454 17.2619C16.1691 17.1359 16.2268 16.9639 16.2737 16.8797C16.3206 16.7956 16.3881 16.6744 16.4239 16.6104C16.517 16.4439 17.1016 15.6211 17.1796 15.547C17.1892 15.5379 17.2488 15.4631 17.312 15.3808C17.3753 15.2986 17.4486 15.2089 17.4751 15.1815C17.5807 15.0718 17.8556 14.6177 17.9973 14.3185C18.0798 14.1443 18.1761 13.9442 18.2114 13.874C18.2466 13.8037 18.2754 13.7312 18.2754 13.7129C18.2754 13.6945 18.2993 13.6249 18.3286 13.5581C18.4288 13.3299 18.4374 13.3035 18.4928 13.0546C18.5234 12.9176 18.5606 12.7531 18.5754 12.6891C18.6329 12.4425 18.6851 12.0071 18.7767 11.0109C18.7935 10.8281 18.8156 10.1403 18.8259 9.48227C18.8497 7.95506 18.8061 7.54794 18.5685 7.07616C18.3739 6.68991 18.0367 6.40515 17.5941 6.25338C17.395 6.18512 16.6697 6.17306 16.6058 6.23696C16.5846 6.25813 16.5381 6.27545 16.5025 6.27545C16.4207 6.27545 16.1006 6.42844 15.9548 6.53714C15.8294 6.63072 15.8035 6.61331 15.7665 6.41053C15.7297 6.20888 15.5149 5.80306 15.3544 5.63232C15.2097 5.47833 14.8801 5.21204 14.8342 5.21204C14.8225 5.21204 14.7732 5.18453 14.7247 5.1509C14.5158 5.00607 14.3017 4.96849 13.6894 4.96909C12.9708 4.96979 12.7749 5.01392 12.3768 5.26495C12.2854 5.32257 12.1346 5.44267 12.0417 5.53179L11.8727 5.6939L11.817 5.57759C11.6608 5.25155 11.1296 4.86245 10.6322 4.70965C10.4316 4.64807 9.54692 4.64724 9.31952 4.70845C8.99508 4.79575 8.67785 4.95992 8.52691 5.11856C8.49312 5.15412 8.46075 5.17848 8.455 5.1727C8.44925 5.16691 8.42699 5.05004 8.40552 4.91296C8.32254 4.38315 8.22142 3.82045 8.17563 3.63355C8.15771 3.56044 8.12781 3.42586 8.10916 3.33447C8.07105 3.14771 8.01279 2.93556 7.97222 2.836C7.95733 2.79945 7.92034 2.68729 7.88997 2.58676C7.85963 2.48624 7.80623 2.34059 7.7713 2.26312C7.73637 2.18563 7.70779 2.11302 7.70779 2.10172C7.70779 2.03984 7.34886 1.31679 7.19796 1.07474C7.07833 0.882793 7.07975 0.884654 6.86039 0.629138C6.69743 0.43932 6.23269 0.0944121 6.13984 0.0944121C6.11395 0.0944121 6.07414 0.0758025 6.05141 0.0530723C6.00964 0.0113004 5.1097 -0.0200035 4.96621 0.0153214ZM5.80859 1.04872C6.09026 1.18118 6.46398 1.71371 6.71305 2.33753C6.76585 2.46972 6.83697 2.63907 6.88967 2.75794C6.91928 2.82467 6.94347 2.90977 6.94347 2.94706C6.94347 2.98434 6.9567 3.02303 6.97288 3.03303C6.98903 3.043 7.01077 3.09251 7.02113 3.14299C7.0315 3.19347 7.0644 3.33198 7.09424 3.45078C7.12409 3.56958 7.15572 3.71165 7.16456 3.76648C7.1734 3.82131 7.19297 3.89608 7.20806 3.93264C7.22318 3.96919 7.25395 4.11873 7.27645 4.26495C7.33693 4.65784 7.36541 4.83038 7.42453 5.1622C7.45387 5.32669 7.48581 5.52857 7.49555 5.61082C7.50528 5.69307 7.52539 5.79027 7.54021 5.82682C7.55503 5.86338 7.58623 6.01292 7.60953 6.15914C7.66655 6.51661 7.70371 6.72763 7.74123 6.90684C7.77851 7.08493 7.86435 7.57526 7.90702 7.85394C7.98893 8.38886 8.01718 8.45247 8.21673 8.55203C8.50099 8.69383 8.83567 8.54033 8.93799 8.22124C8.97989 8.09061 8.9778 7.96051 8.91672 6.90282C8.8797 6.26185 9.01934 5.92183 9.39339 5.74208C9.53067 5.67612 9.60644 5.66548 9.95387 5.66326C10.3545 5.66067 10.389 5.66764 10.6464 5.80303C10.8102 5.88916 10.9002 5.98557 10.9789 6.15914C11.1603 6.55957 11.2623 7.08077 11.3266 7.93701C11.3574 8.34643 11.4401 8.4731 11.7385 8.56775C11.8442 8.60128 11.887 8.59875 12.004 8.55193C12.2914 8.43691 12.3635 8.26487 12.4291 7.53721C12.5274 6.44715 12.5936 6.27222 12.9842 6.07127C13.1254 5.9986 13.1747 5.99298 13.6704 5.99298H14.2045L14.3541 6.09746C14.6754 6.32204 14.7638 6.46201 14.8544 6.89023C14.8738 6.98161 14.904 7.12368 14.9215 7.20592C14.9391 7.28817 14.9688 7.48258 14.9876 7.63793C15.0175 7.88537 15.0439 8.04651 15.107 8.36723C15.1297 8.48281 15.3321 8.66156 15.4694 8.68731C15.8319 8.7553 16.063 8.52923 16.1673 8.00457C16.1799 7.9412 16.2021 7.86643 16.2165 7.83842C16.231 7.8104 16.2735 7.71752 16.311 7.63205C16.4294 7.36231 16.7109 7.20592 17.078 7.20592C17.4191 7.20592 17.6139 7.33739 17.7181 7.63793C17.9357 8.26574 17.838 11.1666 17.5483 12.6815C17.477 13.0546 17.1109 13.9183 16.8477 14.3347C16.7787 14.4438 16.411 14.9201 16.3479 14.9821C16.3083 15.0209 15.9208 15.5513 15.7538 15.7951C15.5663 16.0689 15.2957 16.5723 15.2259 16.7774C15.1043 17.1343 15.0131 18.2331 15.0668 18.6957L15.0947 18.9366H14.6615H14.2283L14.0587 18.7841C13.8751 18.619 13.5543 18.1929 13.4062 17.9176C13.2524 17.6317 13.1075 17.4963 12.7844 17.3367C12.7095 17.2998 12.2767 17.2998 12.2019 17.3367C11.8627 17.5042 11.7976 17.5605 11.623 17.8369C11.5485 17.9549 11.4748 18.0674 11.4593 18.0869C11.4437 18.1064 11.3405 18.245 11.2299 18.3947C10.9417 18.7849 10.7725 18.925 10.5563 18.9521C10.2785 18.9869 8.36634 19.011 7.85338 18.9861L7.38422 18.9633L7.36757 18.5595C7.35843 18.3374 7.33221 18.1108 7.30932 18.056C7.13512 17.6388 7.07218 17.5528 6.68912 17.2086C6.4781 17.0189 5.63751 16.2287 5.48079 16.0727C5.43158 16.0237 5.28819 15.8683 5.16214 15.7273C5.03609 15.5864 4.84634 15.3797 4.74043 15.2681C4.56251 15.0806 4.21654 14.5929 4.06604 14.3174C4.03111 14.2535 3.99126 14.1961 3.97757 14.1901C3.96388 14.1839 3.95265 14.1631 3.95265 14.1438C3.95265 14.1244 3.89283 14.0139 3.81972 13.8982C3.74662 13.7824 3.6868 13.6736 3.6868 13.6564C3.6868 13.6392 3.6756 13.6201 3.66188 13.614C3.64818 13.6079 3.60841 13.5506 3.57351 13.4867C3.48768 13.3293 2.95305 12.5173 2.89912 12.4624C2.87542 12.4383 2.85601 12.4074 2.85601 12.3939C2.85601 12.3804 2.82946 12.3403 2.79703 12.3049C2.76456 12.2695 2.66713 12.1479 2.58053 12.0346C2.49389 11.9215 2.40447 11.8093 2.38177 11.7854C2.16773 11.56 1.22768 10.3318 1.22768 10.2776C1.22768 10.2662 1.20016 10.2172 1.16653 10.1686C1.0902 10.0585 0.995058 9.76634 0.995091 9.64218C0.995158 9.44944 1.09947 9.05821 1.18674 8.92362C1.36871 8.64288 1.59442 8.50078 2.01081 8.40481C2.13054 8.37723 2.20554 8.37603 2.27051 8.40076C2.32076 8.41987 2.39849 8.43548 2.44325 8.43548C2.48798 8.43548 2.55059 8.44838 2.58232 8.46413C2.61406 8.47988 2.72907 8.53594 2.8379 8.58875C3.15314 8.74161 3.66859 9.137 3.95856 9.44831C4.04404 9.5401 4.22784 9.75726 4.36695 9.9309C4.50608 10.1045 4.64061 10.2716 4.66586 10.3021C4.69115 10.3327 4.72784 10.3876 4.74741 10.4241C4.76698 10.4607 4.80228 10.5105 4.8258 10.5348C4.84936 10.559 4.96152 10.7082 5.07507 10.8663C5.19118 11.0279 5.33335 11.1843 5.39994 11.2235C5.55523 11.3152 5.77316 11.315 5.92889 11.2231C6.14665 11.0947 6.19397 10.9122 6.12525 10.466C6.0982 10.2905 6.06135 10.0422 6.04333 9.91428C6.02532 9.78634 5.99741 9.59941 5.98129 9.49889C5.89758 8.97596 5.84564 8.66814 5.8159 8.51856C5.79772 8.42718 5.7606 8.24025 5.73342 8.10317C5.7062 7.96609 5.66898 7.79412 5.65071 7.72101C5.63243 7.6479 5.60222 7.51331 5.58358 7.42193C5.54503 7.23294 5.48668 7.02126 5.4462 6.92346C5.43108 6.8869 5.40383 6.7897 5.38562 6.70745C5.36744 6.62521 5.338 6.50557 5.32019 6.4416C5.30237 6.37763 5.25612 6.19818 5.21737 6.04283C5.14679 5.7597 5.10425 5.59523 5.0456 5.3782C5.02828 5.31423 4.99887 5.18712 4.98023 5.09573C4.96159 5.00435 4.93115 4.86976 4.9126 4.79665C4.89403 4.72354 4.85671 4.55157 4.82966 4.41449C4.80261 4.27741 4.76552 4.09796 4.74724 4.01571C4.63094 3.49189 4.60199 3.17868 4.60292 2.45384C4.60395 1.66353 4.62971 1.47192 4.76213 1.26991C4.83697 1.15576 4.98013 1.05477 5.11575 1.0205C5.29573 0.975043 5.68567 0.990895 5.80859 1.04872ZM11.6093 10.9816C11.5526 11.0108 11.4667 11.096 11.4182 11.1707L11.33 11.3067L11.3305 13.5348C11.3311 16.0018 11.3264 15.9449 11.5444 16.1333C11.7535 16.3141 12.0008 16.3052 12.1961 16.1099C12.2928 16.0131 12.3277 15.9469 12.346 15.825C12.3591 15.7376 12.3589 14.682 12.3455 13.4791C12.3189 11.0884 12.3263 11.169 12.1213 11.0231C11.9904 10.9298 11.7474 10.9102 11.6093 10.9816ZM14.1879 10.9652C14.1423 10.9834 14.0699 11.0311 14.0272 11.0711C13.8532 11.234 13.8556 11.199 13.8556 13.6019C13.8556 16.0839 13.8436 15.9486 14.0813 16.1445C14.2915 16.3178 14.5877 16.2701 14.7677 16.0341L14.8525 15.9229V13.5863V11.2498L14.7713 11.1433C14.63 10.958 14.3898 10.8847 14.1879 10.9652ZM9.13718 11.0367C8.85308 11.1869 8.86797 11.0379 8.87837 13.6222L8.88751 15.9011L8.97863 16.0206C9.21032 16.3243 9.58271 16.3156 9.81493 16.0012C9.88412 15.9075 9.88442 15.8962 9.87431 13.6264C9.86428 11.3707 9.86338 11.3444 9.79343 11.2199C9.71773 11.0852 9.51179 10.9611 9.36411 10.9611C9.31792 10.9611 9.2158 10.9951 9.13718 11.0367Z" fill="black"/>
</svg>
